# ProBuilder 5.0.6
# https://unity3d.com/unity/features/worldbuilding/probuilder
# 25/11/2022 10:22:25 PM

mtllib ./Left_Cat_Ear.mtl
o Left Cat Ear

g Left Cat Ear
v -0.4788522 -0.2780883 -0.09741391
v -0.4427715 -0.2681546 0.0728683
v -0.4022258 0.09259862 -0.1161998
v -0.1970534 -0.06050974 0.01582253
v -0.2366281 -0.06050974 -0.1546442
v -0.3862537 0.03086621 -0.1199078
v -0.2832263 -0.09677009 -0.1405856
v -0.3806002 0.03086621 -0.09555535
v -0.3734304 -0.05867898 -0.09882791
v -0.3533582 -0.2360659 -0.07621378
v -0.2841617 -0.07655418 -0.0922791
v -0.4235062 -0.2521103 -0.1112594
v -0.4121988 -0.2521104 -0.06255557

vt -0.4721813 -1.432505
vt 0.2236224 -1.373924
vt -0.4997027 0.4598426
vt -0.5940572 -1.259175
vt 0.5372287 -0.461838
vt -0.153162 0.6621556
vt -0.2000008 -0.6708204
vt 0.5 -0.6708204
vt 0.5 0.4472136
vt -0.5 -0.5
vt 0 0.5
vt 0 0.1666667
vt -0.2749958 -0.6178207
vt 0.1222883 0.1773261
vt 0.1833192 -0.284854
vt 0.271113 -1.202477
vt -0.1463142 -0.4896051
vt -0.002831957 0.5
vt 0.6828004 -1.263986
vt 0.4355803 -1.209378
vt -0.002831957 0.1666667
vt 0.2698814 -1.238104
vt 0.04346515 -1.23078
vt -0.1160045 -0.3218655
vt -0.1695803 0.141238
vt -0.4619718 -0.6872841
vt -0.4981549 0.1433142
vt -0.2774346 -0.562538
vt -0.3985235 0.1461342
vt 0.5 0.1588014
vt 0.5 -1.285398
vt 0.3999996 0.1588014
vt 0.3000031 -1.285398

vn -0.2384312 0.007257402 0.04710406
vn -0.1192156 0.003628701 0.02355203
vn 0 0 0
vn -0.03814061 0.06706604 0.2262141
vn 0.189086 0.1402251 -0.04389733
vn 0.09454298 0.07011254 -0.02194866
vn -0.06051219 -0.004086102 -0.2424379
vn -0.05653532 -3.72529E-09 -0.2435236
vn -0.06448905 -0.0081722 -0.2413522
vn 0.01946911 0.01439717 -0.2487835
vn 0.01342133 0.00133984 -0.2486632
vn 0.007373545 -0.01171749 -0.2485429
vn -0.05786749 -0.0003635011 -0.2432102
vn -0.05931427 -0.0002254487 -0.2428562
vn -0.06076106 -8.739624E-05 -0.2425022
vn -0.1022757 -0.01786689 -0.2196655
vn -0.05061598 -0.0213863 -0.2431805
vn -0.1539353 -0.01434748 -0.1961504
vn -0.2011499 -0.1212387 0.06750337
vn -0.2023512 -0.1231787 0.05737958
vn -0.2035524 -0.1251186 0.04725579
vn 0.2388016 0.004928298 -0.05543908

usemtl Cat_Fur_Light
f 2/4/4 4/5/4 3/6/4
f 3/3/2 1/1/1 2/2/2
f 2/2/2 3/3/3 3/3/2
f 3/9/6 4/7/5 5/8/6
f 5/8/6 3/9/3 3/9/6
f 6/12/7 3/11/8 5/10/7
f 5/10/7 7/13/9 6/12/7
f 12/20/15 1/19/14 3/18/13
f 3/18/13 6/21/14 12/20/15
f 8/29/21 6/27/20 7/26/19
f 7/26/19 11/28/20 8/29/21
f 13/33/22 12/31/22 6/30/22
f 6/30/22 8/32/22 13/33/22

usemtl Cat_Pink
f 11/17/11 10/16/12 9/15/11 8/14/10
f 10/23/17 13/22/16 8/25/18 9/24/16

