# ProBuilder 5.0.6
# https://unity3d.com/unity/features/worldbuilding/probuilder
# 21/11/2022 1:27:57 PM

mtllib ./Wings_Center.mtl
o Wings Center

g Wings Center
v 0 0.3625001 -0.1000004
v 0 0.3625001 0
v -0.2165064 0.2375001 -0.1000004
v -0.2165064 0.2375001 0
v -0.2165063 -0.2375 -0.1000004
v -0.2165063 -0.2375 0
v 2.185569E-08 -0.3625 -0.1000004
v 2.185569E-08 -0.3625 0.1000004
v 0.2165064 -0.2375 -0.1000004
v 0.2165064 -0.2375 0
v 0.2165064 0.2375001 -0.1000004
v 0.2165064 0.2375001 0
v 0 0 -0.1
v 0 0.1 0.1000004

vt -0.18125 -0.1000004
vt -0.18125 0
vt 0.06874998 -0.1000004
vt 0.06874998 0
vt -0.2375001 -0.1000004
vt -0.2375001 0
vt 0.2375 -0.1000004
vt 0.2375 0
vt -0.06874999 -0.1000004
vt -0.06874999 0
vt 0.18125 -0.1000004
vt 0.18125 0.1000004
vt -0.18125 0.1000004
vt 0.18125 0
vt -0.3625002 6.051898E-08
vt -1.04822E-07 6.051898E-08
vt -0.2375002 0.2165064
vt 0.3387517 -0.02598088
vt 0.05784898 -0.02598089
vt 0.2219408 0.1950513
vt 0.2375 0.2165065
vt 0.2375001 0.1965533
vt 0.1 -0.04193169
vt -0.2375 0.1965533
vt 0.3625001 3.866329E-08
vt -0.3625 -0.04193171
vt 0.2375001 -0.2165064
vt -0.3625 0.04193166
vt 0.1 0.04193169
vt -0.2375 -0.1965533
vt -0.2375001 -0.2165065
vt 0.2375001 -0.1965533
vt 0.2219408 -0.1950513
vt 0.05784898 0.02598089
vt 0.3387517 0.02598088

vn 0 1 0
vn -0.8660254 0.5 0
vn -0.8660254 -0.5000001 0
vn 0 -1 0
vn 0.8660254 -0.5 0
vn 0.8660254 0.5000001 0
vn 6.051898E-07 -1.048219E-06 -1
vn -0.2013262 0.3487071 0.915353
vn -0.4193152 -1.315428E-08 0.9078407
vn 0.4193152 1.981497E-08 0.9078407
vn 0.2013262 0.3487071 0.915353

usemtl Reflective
f 1/15/7 13/16/7 3/17/7
f 3/17/7 13/16/7 5/21/7
f 5/21/7 13/16/7 7/25/7
f 7/25/7 13/16/7 9/27/7
f 9/27/7 13/16/7 11/31/7
f 11/31/7 13/16/7 1/15/7
f 4/20/8 14/19/8 2/18/8
f 6/24/9 14/23/9 4/22/9
f 8/26/9 14/23/9 6/24/9
f 10/30/10 14/29/10 8/28/10
f 12/32/10 14/29/10 10/30/10
f 2/35/11 14/34/11 12/33/11
f 4/4/2 2/2/1 1/1/1
f 1/1/1 3/3/2 4/4/2
f 6/8/3 4/6/2 3/5/2
f 3/5/2 5/7/3 6/8/3
f 8/12/4 6/10/3 5/9/3
f 5/9/3 7/11/4 8/12/4
f 10/4/5 8/13/4 7/1/4
f 7/1/4 9/3/5 10/4/5
f 12/8/6 10/6/5 9/5/5
f 9/5/5 11/7/6 12/8/6
f 2/14/1 12/10/6 11/9/6
f 11/9/6 1/11/1 2/14/1

